<svg width="60" height="60" viewBox="0 0 60 60" fill="none" xmlns="http://www.w3.org/2000/svg">
<path d="M60 30.1858C60 13.51 46.5619 0 30 0C13.4269 0 0 13.51 0 30.1858C0 45.2486 10.9669 57.7379 25.3125 60V38.9133H17.6944V30.1877H25.3125V23.5336C25.3125 15.9702 29.7844 11.7932 36.6394 11.7932C39.9225 11.7932 43.3594 12.3819 43.3594 12.3819V19.8095H39.57C35.85 19.8095 34.6875 22.1394 34.6875 24.526V30.1858H43.0069L41.67 38.9114H34.6875V59.9981C49.0219 57.7361 60 45.2467 60 30.1839V30.1858Z" fill="#0A1209"/>
</svg>
