<svg width="60" height="60" viewBox="0 0 60 60" fill="none" xmlns="http://www.w3.org/2000/svg">
<path d="M30 0C21.8446 0 20.8282 0.0393799 17.6366 0.174397C14.4318 0.331916 12.264 0.828854 10.3513 1.57145C8.34941 2.3272 6.53644 3.51047 5.03875 5.03875C3.50621 6.53294 2.32228 8.34692 1.57145 10.3513C0.828854 12.264 0.331917 14.4318 0.174397 17.6366C0.0300038 20.8301 0 21.8446 0 30C0 38.1554 0.0393799 39.1718 0.174397 42.3634C0.331917 45.5588 0.828854 47.736 1.57145 49.6487C2.3272 51.6506 3.51047 53.4636 5.03875 54.9612C6.53294 56.4938 8.34692 57.6777 10.3513 58.4286C12.264 59.1618 14.4412 59.6681 17.6366 59.8256C20.8301 59.97 21.8446 60 30 60C38.1554 60 39.1718 59.9606 42.3634 59.8256C45.5588 59.6681 47.736 59.1599 49.6487 58.4286C51.6506 57.6728 53.4636 56.4895 54.9612 54.9612C56.4958 53.4687 57.68 51.6542 58.4286 49.6487C59.1618 47.736 59.6681 45.5588 59.8256 42.3634C59.97 39.1699 60 38.1554 60 30C60 21.8446 59.9606 20.8282 59.8256 17.6366C59.6681 14.4412 59.1599 12.2528 58.4286 10.3513C57.6728 8.34941 56.4895 6.53644 54.9612 5.03875C53.4687 3.50423 51.6542 2.32 49.6487 1.57145C47.736 0.828854 45.5588 0.331916 42.3634 0.174397C39.1699 0.0300038 38.1554 0 30 0ZM30 5.40068C38.0091 5.40068 38.9655 5.44005 42.1309 5.57507C45.0506 5.71196 46.6408 6.19952 47.6966 6.61208C49.0018 7.09387 50.1831 7.8607 51.1545 8.85673C52.1489 9.82403 52.9128 11.0027 53.3898 12.3053C53.8023 13.361 54.2899 14.9512 54.4268 17.871C54.5618 21.0364 54.6012 21.9946 54.6012 30.0019C54.6012 38.0091 54.5618 38.9674 54.4156 42.1328C54.258 45.0525 53.7705 46.6427 53.3598 47.6985C52.7916 49.1068 52.1578 50.0913 51.1114 51.1564C50.1367 52.1462 48.9561 52.9093 47.6535 53.3917C46.6108 53.8042 44.9981 54.2918 42.0671 54.4287C38.8849 54.5637 37.9472 54.6031 29.9175 54.6031C21.8877 54.6031 20.952 54.5637 17.766 54.4174C14.8462 54.2599 13.2354 53.7723 12.1796 53.3617C10.7545 52.7935 9.77747 52.1596 8.73109 51.1133C7.67534 50.0575 7.004 49.0524 6.48644 47.6553C6.06638 46.6127 5.58632 45 5.43068 42.069C5.32379 38.9242 5.27316 37.9491 5.27316 29.9569C5.27316 21.9684 5.32379 20.9914 5.43068 17.8072C5.58632 14.8762 6.06638 13.2673 6.48644 12.2209C7.004 10.7938 7.67721 9.81873 8.73109 8.76297C9.7756 7.71846 10.7545 7.04338 12.1796 6.51456C13.2354 6.10389 14.8069 5.61633 17.7378 5.47006C20.9201 5.35567 21.8577 5.31441 29.8762 5.31441L30 5.40068ZM30 14.6025C27.9773 14.6017 25.9742 14.9996 24.1053 15.7733C22.2364 16.547 20.5383 17.6814 19.108 19.1117C17.6777 20.542 16.5433 22.2401 15.7695 24.1091C14.9958 25.978 14.598 27.981 14.5987 30.0037C14.598 32.0265 14.9958 34.0295 15.7695 35.8984C16.5433 37.7674 17.6777 39.4655 19.108 40.8958C20.5383 42.3261 22.2364 43.4605 24.1053 44.2342C25.9742 45.0079 27.9773 45.4058 30 45.405C32.0227 45.4058 34.0258 45.0079 35.8947 44.2342C37.7636 43.4605 39.4617 42.3261 40.892 40.8958C42.3223 39.4655 43.4567 37.7674 44.2304 35.8984C45.0042 34.0295 45.402 32.0265 45.4013 30.0037C45.402 27.981 45.0042 25.978 44.2304 24.1091C43.4567 22.2401 42.3223 20.542 40.892 19.1117C39.4617 17.6814 37.7636 16.547 35.8947 15.7733C34.0258 14.9996 32.0227 14.6017 30 14.6025ZM30 40.0044C24.4718 40.0044 19.9994 35.5319 19.9994 30.0037C19.9994 24.4756 24.4718 20.0031 30 20.0031C35.5282 20.0031 40.0006 24.4756 40.0006 30.0037C40.0006 35.5319 35.5282 40.0044 30 40.0044ZM49.6225 13.9874C49.6215 14.9431 49.2411 15.8594 48.5649 16.5348C47.8888 17.2103 46.9721 17.5897 46.0164 17.5897C45.5438 17.5897 45.0759 17.4966 44.6393 17.3158C44.2027 17.1349 43.806 16.8699 43.4718 16.5357C43.1376 16.2015 42.8726 15.8048 42.6917 15.3682C42.5109 14.9316 42.4178 14.4637 42.4178 13.9911C42.4178 13.5186 42.5109 13.0506 42.6917 12.614C42.8726 12.1774 43.1376 11.7807 43.4718 11.4465C43.806 11.1124 44.2027 10.8473 44.6393 10.6665C45.0759 10.4856 45.5438 10.3925 46.0164 10.3925C47.9985 10.3925 49.6225 12.0053 49.6225 13.9874Z" fill="#65E3E9"/>
</svg>
