<svg width="16" height="20" viewBox="0 0 16 20" fill="none" xmlns="http://www.w3.org/2000/svg">
<path d="M15.5865 9.14937L0.433613 0.0441633C0.394019 0.0201815 0.346434 0.00527787 0.296325 0.00116383C0.246217 -0.0029502 0.195616 0.00389224 0.150334 0.0209055C0.105053 0.0379187 0.066927 0.0644127 0.0403352 0.0973447C0.0137434 0.130277 -0.000236006 0.168311 3.01452e-06 0.20708V2.20604C3.01452e-06 2.33275 0.0773137 2.45429 0.205044 2.53187L12.3058 9.80104L0.205044 17.0702C0.0739523 17.1478 3.01452e-06 17.2693 3.01452e-06 17.396V19.395C3.01452e-06 19.5683 0.258825 19.6639 0.433613 19.5579L15.5865 10.4527C15.7152 10.3754 15.8194 10.2766 15.8911 10.1636C15.9628 10.0507 16 9.9267 16 9.80104C16 9.67538 15.9628 9.55137 15.8911 9.43845C15.8194 9.32553 15.7152 9.22666 15.5865 9.14937Z" fill="black"/>
</svg>
