<svg width="60" height="60" viewBox="0 0 60 60" fill="none" xmlns="http://www.w3.org/2000/svg">
<path d="M58.7478 9.37261C58.4062 7.55769 57.7365 5.90259 56.8058 4.57295C55.875 3.24332 54.7158 2.28578 53.4442 1.79618C48.7634 3.64462e-07 30 0 30 0C30 0 11.2366 -3.64462e-07 6.5558 1.78662C5.28362 2.27464 4.12383 3.23164 3.1929 4.56153C2.26197 5.89141 1.59267 7.54735 1.25223 9.36306C-2.55448e-07 16.051 0 30 0 30C0 30 -2.55448e-07 43.949 1.25223 50.6274C1.94196 54.3153 3.97768 57.2197 6.5558 58.2038C11.2366 60 30 60 30 60C30 60 48.7634 60 53.4442 58.2038C56.029 57.2197 58.058 54.3153 58.7478 50.6274C60 43.949 60 30 60 30C60 30 60 16.051 58.7478 9.37261ZM24.0402 42.8025V17.1975L39.5759 29.9045L24.0402 42.8025Z" fill="#0A1209"/>
</svg>
